<svg class="t-illustration t-illustration-praise " viewBox="0 0 260 156" role="img" aria-label="仲間の得意を見つけて褒めるイラスト" xmlns="http://www.w3.org/2000/svg"><circle cx="202" cy="60" r="49" fill="#fff" opacity=".28"></circle><circle cx="48" cy="127" r="61" fill="#fff" opacity=".25"></circle><circle cx="88" cy="88" r="39" fill="#e9f4ed" stroke="#72ab92" stroke-width="3"></circle><circle cx="88" cy="78" r="17" fill="#f5d0ab"></circle><path d="M60 116c4-16 14-24 28-24s24 8 28 24" fill="#70b49b"></path><path d="M161 32h58a11 11 0 0 1 11 11v52a11 11 0 0 1-11 11h-20l-16 14v-14h-22a11 11 0 0 1-11-11V43a11 11 0 0 1 11-11z" fill="#fff" stroke="#d9e8d2" stroke-width="2"></path><path d="M190 49c-9-9-23 1-14 14l15 16 16-16c9-13-5-23-15-14z" fill="#f49ba1"></path><path d="M161 88h56" stroke="#d1e6d7" stroke-width="3" stroke-linecap="round"></path><path d="M34 35l5-10 5 10 10 5-10 5-5 10-5-10-10-5zm91 8l4-9 4 9 9 4-9 4-4 9-4-9-9-4z" fill="#fff"></path></svg>
