<svg class="t-illustration t-illustration-people " viewBox="0 0 260 156" role="img" aria-label="仲間が出会うイラスト" xmlns="http://www.w3.org/2000/svg"><circle cx="202" cy="60" r="49" fill="#fff" opacity=".28"></circle><circle cx="48" cy="127" r="61" fill="#fff" opacity=".25"></circle><path d="M22 128c28-25 45-19 68 0 22-35 48-33 68 0 24-20 49-23 80 0v17H22z" fill="#b6d4af"></path><circle cx="77" cy="68" r="20" fill="#f6d0ad"></circle><path d="M46 126c1-24 11-38 31-38s30 14 31 38" fill="#5eaa98"></path><circle cx="167" cy="65" r="20" fill="#eac1a6"></circle><path d="M136 125c0-23 10-39 31-39 22 0 33 16 34 39" fill="#6c8fb2"></path><path d="M86 89l31 17 34-19" fill="none" stroke="#fff" stroke-width="3" stroke-linecap="round" stroke-linejoin="round"></path><path d="M78 31q-14-19 5-22c11-1 17 8 14 16m64 9q9-21 24-11 7 7 2 16" fill="#fff" opacity=".8"></path><path d="M110 28c0-11 8-18 20-18s20 7 20 18-8 18-20 18h-4l-10 8 2-12z" fill="#fff"></path><path d="M120 27h20m-16 8h11" stroke="#6aae9f" stroke-width="3" stroke-linecap="round"></path></svg>
